<svg id="Layer_1" data-name="Layer 1" xmlns="http://www.w3.org/2000/svg" viewBox="0 0 246.99 246.98"><defs><style>.cls-1,.cls-2{fill:#fff;}.cls-1{opacity:1;isolation:isolate;}</style></defs><title>Poll Icon</title><path class="cls-1" d="M123.5,240.26A117.79,117.79,0,0,1,100,237.89,116.78,116.78,0,0,1,9.09,147a118,118,0,0,1,0-47.07A116.82,116.82,0,0,1,100,9.09a118,118,0,0,1,47.07,0A116.78,116.78,0,0,1,237.9,100a118,118,0,0,1,0,47.07,116.57,116.57,0,0,1-114.4,93.23Zm0-224a107.58,107.58,0,0,0-21.62,2.17,107.12,107.12,0,0,0-83.42,83.44,108.08,108.08,0,0,0,0,43.22,107.14,107.14,0,0,0,83.43,83.43,108.08,108.08,0,0,0,43.22,0,107.14,107.14,0,0,0,83.43-83.43,108.08,108.08,0,0,0,0-43.22,107,107,0,0,0-105-85.61Z"/><path class="cls-2" d="M122,186.14a26.47,26.47,0,0,1-3.21-.2,57.83,57.83,0,0,1-36.31-16.53A58.62,58.62,0,0,1,81.45,86.8l.07,0,.26-.29a1.27,1.27,0,0,1,.83-.27,1.34,1.34,0,0,1,.93.38L95.24,98l1.83-2.82a75.53,75.53,0,0,1,59-34.31h.07a1.28,1.28,0,0,1,.92.39,1.34,1.34,0,0,1,.39.95,1.32,1.32,0,0,1-.1.51,71.54,71.54,0,0,0-4,41.79l1.17,5.76,13-16.2a1.28,1.28,0,0,1,1-.5h2a1.33,1.33,0,0,1,1.1.57,58.56,58.56,0,0,1-47.46,92h-2Z"/></svg>