<svg id="Layer_1" data-name="Layer 1" xmlns="http://www.w3.org/2000/svg" viewBox="0 0 246.99 246.98">
<defs><style>.cls-1,.cls-2,.cls-3{fill:#fff;}.cls-1{opacity:1;isolation:isolate;}.cls-2{opacity:0.5;}</style>
</defs>
<title>Poll Icon</title>
<path class="cls-1" d="M123.5,240.26A117.79,117.79,0,0,1,100,237.89,116.78,116.78,0,0,1,9.09,147a118,118,0,0,1,0-47.07A116.82,116.82,0,0,1,100,9.09a118,118,0,0,1,47.07,0A116.78,116.78,0,0,1,237.9,100a118,118,0,0,1,0,47.07,116.57,116.57,0,0,1-114.4,93.23Zm0-224a107.58,107.58,0,0,0-21.62,2.17,107.12,107.12,0,0,0-83.42,83.44,108.08,108.08,0,0,0,0,43.22,107.14,107.14,0,0,0,83.43,83.43,108.08,108.08,0,0,0,43.22,0,107.14,107.14,0,0,0,83.43-83.43,108.08,108.08,0,0,0,0-43.22,107,107,0,0,0-105-85.61Z"/>
<path class="cls-2" d="M89,97.18S96.36,89.5,98,87l5.49,5.75a47.64,47.64,0,0,1-6,6.76A4.53,4.53,0,0,1,91,99.37Z"/>
<path class="cls-2" d="M147.81,91.37c0-.41,0-.83,0-1.24a75.62,75.62,0,0,1,.94-11.84l7.94,1.26a67,67,0,0,0-.84,10.58c0,.37,0,.74,0,1.11Zm-38-5.63-5.69-5.68a80.55,80.55,0,0,1,10-8.47l4.69,6.54A71.59,71.59,0,0,0,109.8,85.74Zm19-13.65-3.55-7.22a79.77,79.77,0,0,1,12.16-4.79l2.33,7.69A71.27,71.27,0,0,0,128.85,72.09Zm30.67-3.9s-8.69-2.39-9-2.36l-.32-8.49c1.83-.24,3.69-.41,5.54-.51h.48a5.35,5.35,0,0,1,5.15,5.36,5.18,5.18,0,0,1-.42,2.07C160.48,65.53,160,66.86,159.52,68.19Zm-5.94-7v0Z"/>
<path class="cls-2" d="M154.44,114.27a4.31,4.31,0,0,1-.94-.11,4,4,0,0,1-3-3.11s-1.28-6.32-1.33-6.61l7.46-2.93,5.14,6-4.19,5.23A4,4,0,0,1,154.44,114.27Z"/>
<path class="cls-2" d="M122.38,190.16H122a30.85,30.85,0,0,1-3.58-.22c-1.1-.09-2.21-.2-3.3-.35l1.05-8c1,.13,2,.23,3,.31l.18,0a22.87,22.87,0,0,0,2.73.17h2c1.32,0,2.69-.08,4-.19l.67,8c-1.53.13-3.1.2-4.66.22Zm19.85-2.86-2.41-7.67a54.41,54.41,0,0,0,10.92-4.8l4,7A62.34,62.34,0,0,1,142.23,187.3Zm-40.4-1a61.53,61.53,0,0,1-12.26-6.11l4.37-6.75a53.83,53.83,0,0,0,10.66,5.31Zm64-12.61-5.43-5.93a54,54,0,0,0,7.85-9l6.6,4.59A62.33,62.33,0,0,1,165.79,173.71ZM79,171.56a62.67,62.67,0,0,1-8.5-10.73l6.81-4.27a55,55,0,0,0,7.41,9.35Zm102.37-20.18-7.44-3a54.94,54.94,0,0,0,3.3-11.47l7.92,1.38A63.11,63.11,0,0,1,181.35,151.38ZM64.52,148.5a62.62,62.62,0,0,1-3.12-13.32l8-1a54.91,54.91,0,0,0,2.72,11.61ZM178,125a54,54,0,0,0-1.85-11.78l7.76-2.11A63,63,0,0,1,186,124.58ZM69.23,122.27l-8-.77A63,63,0,0,1,64,108.1l7.65,2.49A55.28,55.28,0,0,0,69.23,122.27Z"/>
<path class="cls-2" d="M76.87,99.44,69.58,96c2.4-5.16,7.26-13.87,12.87-14.3.85-.07,3.43-.27,9,4.66l-5.35,6c-.57-.5-1.21-1-1.82-1.47a1.76,1.76,0,0,0-2.43.31A44.41,44.41,0,0,0,76.87,99.44Z"/>
<path class="cls-2" d="M173.83,104.84a29.56,29.56,0,0,0-3.29-6.4,1.62,1.62,0,0,0-2.22-.4c-.45.3-.92.64-1.32,1l-5.07-6.25c2.22-1.8,5.46-3.91,8.19-3.69,6,.46,9.88,9.24,11.26,13Z"/>
</svg>